<!-- /assets/icons.svg -->
<svg xmlns="http://www.w3.org/2000/svg" style="display:none">
  <!-- Instagram -->
  <symbol id="instagram" viewBox="0 0 32 32">
    <path d="M10.202,2.098c-1.49,.07-2.507,.308-3.396...-4.656h0"></path>
  </symbol>

  <!-- Mail (generic) -->
  <symbol id="mail" viewBox="0 0 24 24">
    <path d="M2 6a2 2 0 0 1 2-2h16a2 2 0 0 1 2 2v12a2 2 0 0 1-2 2H4a2 2 0 0 1-2-2V6zm2-.001L12 10.9 20 6v.001H4zM20 8.235l-6.803 4.252a2 2 0 0 1-2.394 0L4 8.235V18h16V8.235z"/>
  </symbol>

  <!-- Globe (fallback) -->
  <symbol id="globe" viewBox="0 0 24 24">
    <path d="M12 2a10 10 0 1 0 0 20 10 10 0 0 0 0-20zm0 2c2.5 0 4.5 3.6 4.9 8H7.1C7.5 7.6 9.5 4 12 4zm0 16c-2.5 0-4.5-3.6-4.9-8h9.8c-.4 4.4-2.4 8-4.9 8z"/>
  </symbol>
  
  <!-- Etsy -->
  <symbol id="etsy" viewBox="0 0 24 24">
    <path d="M8.559 2.445c0-.325.033-.52.59-.52h7.465c1.3 0 2.02 1.11 2.54 3.193l.42 1.666h1.27c.23-4.728.43-6.784.43-6.784s-3.196.36-5.09.36H6.635L1.521.196v1.37l1.725.326c1.21.24 1.5.496 1.6 1.606 0 0 .11 3.27.11 8.64 0 5.385-.09 8.61-.09 8.61 0 .973-.39 1.333-1.59 1.573l-1.722.33V24l5.13-.165h8.55c1.935 0 6.39.165 6.39.165.105-1.17.75-6.48.855-7.064h-1.2l-1.284 2.91c-1.005 2.28-2.476 2.445-4.11 2.445h-4.906c-1.63 0-2.415-.64-2.415-2.05V12.8s3.62 0 4.79.096c.912.064 1.463.325 1.76 1.598l.39 1.695h1.41l-.09-4.278.192-4.305h-1.391l-.45 1.89c-.283 1.244-.48 1.47-1.754 1.6-1.666.17-4.815.14-4.815.14V2.45h-.05z"/>
  </symbol>

  <!-- Linktree -->
  <symbol id="linktree" viewBox="0 0 24 24">
    <path d="m13.73635 5.85251 4.00467-4.11665 2.3248 2.3808-4.20064 4.00466h5.9085v3.30473h-5.9365l4.22865 4.10766-2.3248 2.3338L12.0005 12.099l-5.74052 5.76852-2.3248-2.3248 4.22864-4.10766h-5.9375V8.12132h5.9085L3.93417 4.11666l2.3248-2.3808 4.00468 4.11665V0h3.4727zm-3.4727 10.30614h3.4727V24h-3.4727z"/>
  </symbol>

</svg>
